<svg width="20" height="20" viewBox="0 0 20 20" fill="none" xmlns="http://www.w3.org/2000/svg">
<path d="M1.50929 8.67006C1.67242 6.48617 2.60064 4.44801 4.10903 2.96167C5.61742 1.47533 7.59525 0.649939 9.64846 0.649902C11.6983 0.650213 13.673 1.47285 15.1808 2.95457C16.6885 4.43629 17.619 6.46877 17.7876 8.64854M17.2427 12.494C16.4766 14.5654 15.6281 15.7243 13.2066 17.355M17.2427 12.494C17.0175 12.4208 16.8286 12.2554 16.7173 12.0341C16.606 11.8127 16.5814 11.5534 16.6488 11.3127C16.8011 10.775 16.8779 10.2162 16.8766 9.6545C16.8766 9.53021 16.8995 9.40715 16.9442 9.29237C16.9889 9.17758 17.0543 9.07333 17.1368 8.98559C17.2193 8.89785 17.3172 8.82836 17.425 8.78107C17.5327 8.73379 17.6481 8.70966 17.7646 8.71006C17.8809 8.70965 17.9962 8.73379 18.1037 8.78111C18.2113 8.82843 18.309 8.898 18.3913 8.98578C18.4735 9.07356 18.5387 9.17782 18.5831 9.29259C18.6274 9.40736 18.6501 9.53036 18.6497 9.6545C18.6552 10.4009 18.5581 11.144 18.3614 11.8603C18.3068 12.0549 18.1948 12.2256 18.0421 12.347C17.8894 12.4684 17.7041 12.534 17.5137 12.534C17.4221 12.534 17.3309 12.5205 17.2427 12.494ZM9.7609 10.9404V10.3252C9.76111 10.0581 9.82834 9.79602 9.9556 9.56609C10.0829 9.33616 10.2552 9.15501 10.4846 9.0177C10.714 8.88038 10.9049 8.68027 11.0377 8.43802C11.1704 8.19576 11.2403 7.92012 11.24 7.63947C11.234 7.22318 11.0762 6.82575 10.8 6.53164C10.5238 6.23753 10.1511 6.06991 9.7609 6.06436C9.3694 6.06436 8.99393 6.23031 8.7171 6.52571C8.44026 6.8211 8.28473 7.22173 8.28473 7.63947V7.98711M1.78608 12.534C1.59567 12.534 1.41036 12.4684 1.25766 12.347C1.10496 12.2256 0.993025 12.0549 0.938445 11.8603C0.7417 11.144 0.644559 10.4009 0.650129 9.6545C0.650128 9.53021 0.673111 9.40715 0.717773 9.29237C0.762436 9.17758 0.827897 9.07333 0.910395 8.98559C0.992893 8.89785 1.09081 8.82836 1.19854 8.78107C1.30626 8.73379 1.42165 8.70966 1.53813 8.71006C1.65447 8.70965 1.76974 8.73379 1.8773 8.78111C1.98486 8.82843 2.08261 8.898 2.16488 8.98578C2.24715 9.07356 2.31231 9.17782 2.35666 9.29259C2.40101 9.40736 2.42366 9.53036 2.42328 9.6545C2.42335 10.2161 2.50006 10.7747 2.65103 11.3127C2.68478 11.4319 2.69619 11.557 2.6846 11.6809C2.67302 11.8047 2.63868 11.925 2.58352 12.0347C2.52837 12.1444 2.45346 12.2414 2.36313 12.3202C2.27281 12.3991 2.16884 12.4581 2.05711 12.494C1.969 12.521 1.87774 12.5345 1.78608 12.534ZM13.6474 13.2939C14.1896 12.7162 14.6111 12.0225 14.8841 11.2585C15.1571 10.4945 15.2754 9.67753 15.2313 8.86125C15.1872 8.04498 14.9816 7.24792 14.6281 6.52248C14.2746 5.79705 13.7812 5.15966 13.1803 4.65227C12.2249 3.84773 11.0445 3.40788 9.82737 3.40286C8.61027 3.39784 7.42666 3.82795 6.46545 4.62459C5.43447 5.48457 4.72894 6.71261 4.47841 8.0831C4.22789 9.4536 4.44919 10.8745 5.10171 12.0849L4.12147 15.1397C4.11582 15.157 4.11479 15.1757 4.11851 15.1935C4.12223 15.2114 4.13057 15.2278 4.14255 15.2409C4.15453 15.254 4.16968 15.2633 4.18633 15.2677C4.20298 15.2721 4.22043 15.2714 4.23677 15.2658L7.10265 14.2168C8.1367 14.8529 9.33851 15.1072 10.5218 14.9404C11.7051 14.7735 12.8037 14.1948 13.6474 13.2939ZM13.2812 17.7301C13.2812 18.2381 12.8953 18.6499 12.4192 18.6499C11.9431 18.6499 11.5571 18.2381 11.5571 17.7301C11.5571 17.222 11.9431 16.8102 12.4192 16.8102C12.8953 16.8102 13.2812 17.222 13.2812 17.7301Z" stroke="#0E0E0E" stroke-width="1.3" stroke-miterlimit="10"/>
<ellipse cx="9.6489" cy="11.9781" rx="0.576633" ry="0.61528" fill="#4B4544"/>
</svg>
