<svg width="69" height="40" viewBox="0 0 69 40" fill="none" xmlns="http://www.w3.org/2000/svg">
<rect width="69" height="40" rx="10" fill="#F6F6F6"/>
<path d="M23.7779 16.2081C23.3049 16.1711 22.7979 16.2841 22.0199 16.5811C22.0849 16.5561 21.2779 16.8711 21.0509 16.9511C20.5489 17.1261 20.1359 17.2221 19.6729 17.2221C19.2149 17.2221 18.7929 17.1301 18.3079 16.9671C18.138 16.9092 17.9697 16.8472 17.8029 16.7811L17.3539 16.6041C16.7059 16.3501 16.3419 16.2541 16.0389 16.2621C14.8859 16.2761 13.7959 16.9421 13.1619 18.0441C11.8699 20.2871 12.5859 24.3431 14.4749 27.0751C15.4799 28.5191 16.0309 29.0351 16.2519 29.0281C16.4739 29.0181 16.6379 28.9711 17.0359 28.8031L17.2019 28.7321C18.2079 28.3031 18.9119 28.1141 19.9729 28.1141C20.9939 28.1141 21.6759 28.3001 22.6419 28.7161L22.8099 28.7881C23.2069 28.9581 23.3499 28.9961 23.6019 28.9901C23.9589 28.9851 24.3999 28.5731 25.3789 27.1361C25.6469 26.7451 25.8839 26.3331 26.0889 25.9161C25.9543 25.8053 25.8238 25.6896 25.6979 25.5691C24.4079 24.3411 23.6109 22.6851 23.5889 20.6391C23.568 19.1252 24.0659 17.6498 24.9999 16.4581C24.608 16.313 24.1962 16.2287 23.7789 16.2081M23.9339 14.2141C24.6419 14.2621 26.6699 14.4781 27.9899 16.4101C27.8819 16.4701 25.5659 17.8141 25.5899 20.6221C25.6259 23.9821 28.5299 25.0981 28.5659 25.1101C28.5419 25.1941 28.0979 26.7061 27.0299 28.2661C26.1059 29.6221 25.1459 30.9661 23.6339 30.9901C22.1459 31.0261 21.6659 30.1141 19.9739 30.1141C18.2699 30.1141 17.7419 30.9661 16.3379 31.0261C14.8739 31.0741 13.7699 29.5621 12.8339 28.2181C10.9259 25.4581 9.47387 20.4421 11.4299 17.0461C12.4019 15.3541 14.1299 14.2861 16.0139 14.2621C17.4419 14.2261 18.7979 15.2221 19.6739 15.2221C20.5379 15.2221 22.0859 14.0701 23.9339 14.2141ZM22.7939 12.3901C22.0139 13.3261 20.7419 14.0581 19.5059 13.9621C19.3379 12.6901 19.9619 11.3581 20.6819 10.5301C21.4859 9.5941 22.8299 8.8981 23.9459 8.8501C24.0899 10.1461 23.5739 11.4541 22.7939 12.3901Z" fill="#0E0E0E"/>
<path d="M36.32 21.68V20.368H39.344C39.76 20.368 40.128 20.2827 40.448 20.112C40.7787 19.9413 41.0347 19.7013 41.216 19.392C41.408 19.0827 41.504 18.7147 41.504 18.288C41.504 17.8613 41.408 17.4933 41.216 17.184C41.0347 16.8747 40.7787 16.6347 40.448 16.464C40.128 16.2933 39.76 16.208 39.344 16.208H36.32V14.896H39.44C40.1227 14.896 40.7307 15.0347 41.264 15.312C41.808 15.5893 42.2347 15.984 42.544 16.496C42.864 16.9973 43.024 17.5947 43.024 18.288C43.024 18.9707 42.864 19.568 42.544 20.08C42.2347 20.5813 41.808 20.976 41.264 21.264C40.7307 21.5413 40.1227 21.68 39.44 21.68H36.32ZM35.312 26V14.896H36.816V26H35.312ZM47.5536 26.16C46.8603 26.16 46.231 25.9893 45.6656 25.648C45.1003 25.296 44.6523 24.8213 44.3216 24.224C44.0016 23.6267 43.8416 22.9547 43.8416 22.208C43.8416 21.4613 44.0016 20.7893 44.3216 20.192C44.6523 19.5947 45.095 19.12 45.6496 18.768C46.215 18.416 46.8496 18.24 47.5536 18.24C48.1296 18.24 48.6416 18.3627 49.0896 18.608C49.5483 18.8427 49.9163 19.1733 50.1936 19.6C50.471 20.016 50.6256 20.5013 50.6576 21.056V23.344C50.6256 23.888 50.471 24.3733 50.1936 24.8C49.927 25.2267 49.5643 25.5627 49.1056 25.808C48.6576 26.0427 48.1403 26.16 47.5536 26.16ZM47.7936 24.8C48.5083 24.8 49.0843 24.56 49.5216 24.08C49.959 23.5893 50.1776 22.9653 50.1776 22.208C50.1776 21.6853 50.0763 21.232 49.8736 20.848C49.6816 20.4533 49.4043 20.1493 49.0416 19.936C48.679 19.712 48.2576 19.6 47.7776 19.6C47.2976 19.6 46.871 19.712 46.4976 19.936C46.135 20.16 45.847 20.4693 45.6336 20.864C45.431 21.248 45.3296 21.6907 45.3296 22.192C45.3296 22.704 45.431 23.1573 45.6336 23.552C45.847 23.936 46.1403 24.24 46.5136 24.464C46.887 24.688 47.3136 24.8 47.7936 24.8ZM50.0816 26V23.952L50.3536 22.096L50.0816 20.256V18.4H51.5376V26H50.0816ZM56.1301 26.064L52.8341 18.4H54.4341L56.8821 24.4H56.3701L58.9461 18.4H60.5461L56.9941 26.064H56.1301ZM53.9541 29.184L56.1941 24.592L56.9941 26.064L55.5541 29.184H53.9541Z" fill="#0E0E0E"/>
</svg>
