<svg width="69" height="40" viewBox="0 0 69 40" fill="none" xmlns="http://www.w3.org/2000/svg">
<rect width="69" height="40" rx="10" fill="#F6F6F6"/>
<path opacity="0.987" fill-rule="evenodd" clip-rule="evenodd" d="M18.8134 9.59161C19.9009 9.47011 20.5444 9.47011 21.7129 9.59161C23.7813 9.89776 25.6987 10.8538 27.1879 12.3216C26.1816 13.2728 25.1885 14.2379 24.2089 15.2166C22.3329 13.6266 20.2389 13.2596 17.9269 14.1156C16.2309 14.8956 15.0499 16.1596 14.3839 17.9076C13.2955 17.0974 12.2214 16.2682 11.1619 15.4206C11.0882 15.3819 11.0041 15.3677 10.9219 15.3801C12.6049 12.1351 15.2349 10.2051 18.8119 9.59011" fill="#F44336"/>
<path opacity="0.997" fill-rule="evenodd" clip-rule="evenodd" d="M10.9189 15.3803C11.0039 15.3673 11.0844 15.3808 11.1604 15.4208C12.2199 16.2684 13.2941 17.0975 14.3824 17.9078C14.2111 18.5889 14.1032 19.2843 14.0599 19.9853C14.0969 20.6633 14.2044 21.3288 14.3824 21.9818L10.9999 24.6743C9.52689 21.5963 9.49989 18.4983 10.9189 15.3803Z" fill="#FFC107"/>
<path opacity="0.999" fill-rule="evenodd" clip-rule="evenodd" d="M27.0276 27.9351C25.9744 27.0063 24.8718 26.135 23.7246 25.3251C24.8746 24.5131 25.5726 23.3991 25.8186 21.9831H20.1831V18.0696C23.4331 18.0426 26.6816 18.0701 29.9286 18.1521C30.5446 21.4971 29.8331 24.5131 27.7941 27.2001C27.5517 27.4578 27.2948 27.7031 27.0276 27.9351Z" fill="#448AFF"/>
<path opacity="0.993" fill-rule="evenodd" clip-rule="evenodd" d="M14.3825 21.9829C15.6125 25.0399 17.8675 26.4669 21.1475 26.2639C22.0682 26.1573 22.951 25.8357 23.7245 25.3249C24.8725 26.1369 25.9735 27.0069 27.0275 27.9349C25.3575 29.4356 23.2282 30.326 20.987 30.4609C20.4778 30.5016 19.9662 30.5016 19.457 30.4609C15.639 30.0109 12.82 28.0819 11 24.6739L14.3825 21.9829Z" fill="#43A047"/>
<path d="M36.32 21.68V20.368H39.344C39.76 20.368 40.128 20.2827 40.448 20.112C40.7787 19.9413 41.0347 19.7013 41.216 19.392C41.408 19.0827 41.504 18.7147 41.504 18.288C41.504 17.8613 41.408 17.4933 41.216 17.184C41.0347 16.8747 40.7787 16.6347 40.448 16.464C40.128 16.2933 39.76 16.208 39.344 16.208H36.32V14.896H39.44C40.1227 14.896 40.7307 15.0347 41.264 15.312C41.808 15.5893 42.2347 15.984 42.544 16.496C42.864 16.9973 43.024 17.5947 43.024 18.288C43.024 18.9707 42.864 19.568 42.544 20.08C42.2347 20.5813 41.808 20.976 41.264 21.264C40.7307 21.5413 40.1227 21.68 39.44 21.68H36.32ZM35.312 26V14.896H36.816V26H35.312ZM47.5536 26.16C46.8603 26.16 46.231 25.9893 45.6656 25.648C45.1003 25.296 44.6523 24.8213 44.3216 24.224C44.0016 23.6267 43.8416 22.9547 43.8416 22.208C43.8416 21.4613 44.0016 20.7893 44.3216 20.192C44.6523 19.5947 45.095 19.12 45.6496 18.768C46.215 18.416 46.8496 18.24 47.5536 18.24C48.1296 18.24 48.6416 18.3627 49.0896 18.608C49.5483 18.8427 49.9163 19.1733 50.1936 19.6C50.471 20.016 50.6256 20.5013 50.6576 21.056V23.344C50.6256 23.888 50.471 24.3733 50.1936 24.8C49.927 25.2267 49.5643 25.5627 49.1056 25.808C48.6576 26.0427 48.1403 26.16 47.5536 26.16ZM47.7936 24.8C48.5083 24.8 49.0843 24.56 49.5216 24.08C49.959 23.5893 50.1776 22.9653 50.1776 22.208C50.1776 21.6853 50.0763 21.232 49.8736 20.848C49.6816 20.4533 49.4043 20.1493 49.0416 19.936C48.679 19.712 48.2576 19.6 47.7776 19.6C47.2976 19.6 46.871 19.712 46.4976 19.936C46.135 20.16 45.847 20.4693 45.6336 20.864C45.431 21.248 45.3296 21.6907 45.3296 22.192C45.3296 22.704 45.431 23.1573 45.6336 23.552C45.847 23.936 46.1403 24.24 46.5136 24.464C46.887 24.688 47.3136 24.8 47.7936 24.8ZM50.0816 26V23.952L50.3536 22.096L50.0816 20.256V18.4H51.5376V26H50.0816ZM56.1301 26.064L52.8341 18.4H54.4341L56.8821 24.4H56.3701L58.9461 18.4H60.5461L56.9941 26.064H56.1301ZM53.9541 29.184L56.1941 24.592L56.9941 26.064L55.5541 29.184H53.9541Z" fill="#0E0E0E"/>
</svg>
