<svg width="72" height="40" viewBox="0 0 72 40" fill="none" xmlns="http://www.w3.org/2000/svg">
<rect width="72" height="40" rx="10" fill="#F6F6F6"/>
<path d="M31 26H26L30 10H37C38.4587 10 39.8576 10.5795 40.8891 11.6109C41.9205 12.6424 42.5 14.0413 42.5 15.5C42.5 16.9587 41.9205 18.3576 40.8891 19.3891C39.8576 20.4205 38.4587 21 37 21H32.3M30 30L34 14H41C42.4587 14 43.8576 14.5795 44.8891 15.6109C45.9205 16.6424 46.5 18.0413 46.5 19.5C46.5 20.9587 45.9205 22.3576 44.8891 23.3891C43.8576 24.4205 42.4587 25 41 25H36.3L35 30H30Z" stroke="#0E0E0E" stroke-width="2" stroke-linecap="round" stroke-linejoin="round"/>
</svg>
