<svg width="68" height="40" viewBox="0 0 68 40" fill="none" xmlns="http://www.w3.org/2000/svg">
<rect width="68" height="40" rx="10" fill="#F6F6F6"/>
<mask id="mask0_1925_2092" style="mask-type:luminance" maskUnits="userSpaceOnUse" x="8" y="12" width="25" height="16">
<path d="M31.2456 12H9.75439C8.78547 12 8 12.9551 8 14.1333V25.8667C8 27.0449 8.78547 28 9.75439 28H31.2456C32.2145 28 33 27.0449 33 25.8667V14.1333C33 12.9551 32.2145 12 31.2456 12Z" fill="white"/>
</mask>
<g mask="url(#mask0_1925_2092)">
<path d="M31.6782 12.2007H9.31978C8.68149 12.2007 8.16406 12.8299 8.16406 13.606V26.3938C8.16406 27.17 8.68149 27.7992 9.31978 27.7992H31.6782C32.3164 27.7992 32.8339 27.17 32.8339 26.3938V13.606C32.8339 12.8299 32.3164 12.2007 31.6782 12.2007Z" fill="#F3F3F3"/>
<path fill-rule="evenodd" clip-rule="evenodd" d="M16.2862 23.1459H14.7843L13.6579 17.7672C13.6045 17.5198 13.491 17.3011 13.324 17.198C12.9073 16.9389 12.4482 16.7327 11.9473 16.6287V16.4216H14.3668C14.7008 16.4216 14.9512 16.7327 14.993 17.094L15.5773 20.9738L17.0786 16.4216H18.5388L16.2862 23.1459ZM19.3736 23.1459H17.9552L19.1232 16.4216H20.5417L19.3736 23.1459ZM22.3769 18.2845C22.4186 17.9223 22.669 17.7153 22.9612 17.7153C23.4204 17.6633 23.9205 17.7673 24.338 18.0254L24.5884 16.5777C24.171 16.3706 23.7118 16.2666 23.2952 16.2666C21.9184 16.2666 20.9166 17.198 20.9166 18.4907C20.9166 19.4741 21.6262 19.9905 22.1271 20.3015C22.669 20.6117 22.8777 20.8188 22.836 21.1289C22.836 21.5942 22.4186 21.8013 22.0019 21.8013C21.501 21.8013 21.0001 21.6462 20.5417 21.3871L20.2912 22.8358C20.7921 23.094 21.334 23.1979 21.8349 23.1979C23.3786 23.2491 24.338 22.3185 24.338 20.9219C24.338 19.163 22.3769 19.0599 22.3769 18.2845ZM29.3023 23.1459L28.176 16.4216H26.9662C26.7157 16.4216 26.4653 16.6287 26.3818 16.9389L24.2962 23.1459H25.7564L26.0479 22.1634H27.8421L28.009 23.1459H29.3023ZM27.175 18.2325L27.5917 20.7668H26.4236L27.175 18.2325Z" fill="#172B85"/>
</g>
<mask id="mask1_1925_2092" style="mask-type:luminance" maskUnits="userSpaceOnUse" x="35" y="12" width="25" height="16">
<path d="M58.2456 12H36.7544C35.7855 12 35 12.9551 35 14.1333V25.8667C35 27.0449 35.7855 28 36.7544 28H58.2456C59.2145 28 60 27.0449 60 25.8667V14.1333C60 12.9551 59.2145 12 58.2456 12Z" fill="white"/>
</mask>
<g mask="url(#mask1_1925_2092)">
<path d="M58.6782 12.2007H36.3198C35.6815 12.2007 35.1641 12.8299 35.1641 13.606V26.3938C35.1641 27.17 35.6815 27.7992 36.3198 27.7992H58.6782C59.3164 27.7992 59.8339 27.17 59.8339 26.3938V13.606C59.8339 12.8299 59.3164 12.2007 58.6782 12.2007Z" fill="white"/>
<path fill-rule="evenodd" clip-rule="evenodd" d="M47.8601 23.2317C47.2413 23.866 46.4386 24.2489 45.5614 24.2489C43.6042 24.2489 42.0176 22.3425 42.0176 19.9909C42.0176 17.6393 43.6042 15.7329 45.5614 15.7329C46.4386 15.7329 47.2413 16.1158 47.8601 16.7501C48.479 16.1158 49.2817 15.7329 50.1588 15.7329C52.116 15.7329 53.7027 17.6393 53.7027 19.9909C53.7027 22.3426 52.116 24.2489 50.1588 24.2489C49.2817 24.2489 48.479 23.866 47.8601 23.2317Z" fill="#ED0006"/>
<path fill-rule="evenodd" clip-rule="evenodd" d="M47.8594 23.2318C48.6213 22.4508 49.1045 21.2887 49.1045 19.9909C49.1045 18.6932 48.6213 17.5311 47.8594 16.7501C48.4782 16.1158 49.2809 15.7329 50.158 15.7329C52.1152 15.7329 53.7019 17.6393 53.7019 19.9909C53.7019 22.3426 52.1152 24.2489 50.158 24.2489C49.2809 24.2489 48.4782 23.8661 47.8594 23.2318Z" fill="#F9A000"/>
<path fill-rule="evenodd" clip-rule="evenodd" d="M47.8603 23.2321C48.6223 22.4511 49.1054 21.289 49.1054 19.9913C49.1054 18.6936 48.6223 17.5315 47.8603 16.7505C47.0984 17.5315 46.6152 18.6936 46.6152 19.9913C46.6152 21.289 47.0984 22.4511 47.8603 23.2321Z" fill="#FF5E00"/>
</g>
</svg>
