<svg width="19" height="19" viewBox="0 0 19 19" fill="none" xmlns="http://www.w3.org/2000/svg">
<rect x="0.585323" y="0.585323" width="17.8294" height="17.8294" rx="8.60823" stroke="#76453B" stroke-width="1.17065"/>
<path d="M13.1924 6.52557V12.5949C13.1924 13.1554 12.9705 13.693 12.5753 14.0896C12.1801 14.4861 11.644 14.7091 11.0849 14.7095H7.91695C7.64004 14.7095 7.36584 14.6548 7.11004 14.5485C6.85423 14.4422 6.62182 14.2864 6.4261 14.0901C6.23037 13.8937 6.07517 13.6605 5.96935 13.404C5.86354 13.1474 5.80918 12.8725 5.8094 12.5949V6.52557M8.06796 8.35735V12.5583M10.9322 8.35735V12.5583M7.83065 5.11305V4.7487C7.83153 4.4648 7.94441 4.19278 8.14464 3.99204C8.34487 3.79129 8.61619 3.67812 8.89936 3.67725H10.1025C10.3857 3.67812 10.657 3.79129 10.8572 3.99204C11.0574 4.19278 11.1703 4.4648 11.1712 4.7487V5.11305M5.31819 5.11306H13.682C13.9111 5.11306 14.0969 5.29928 14.0969 5.52899V6.10964C14.0969 6.33935 13.9111 6.52557 13.682 6.52557H5.31819C5.08906 6.52557 4.90332 6.33935 4.90332 6.10964V5.52899C4.90332 5.29928 5.08906 5.11306 5.31819 5.11306Z" stroke="#76453B" stroke-width="1.17065" stroke-linecap="round" stroke-linejoin="round"/>
</svg>
