<svg width="20" height="20" viewBox="0 0 20 20" fill="none" xmlns="http://www.w3.org/2000/svg">
<path d="M9.4943 12.6L4.6543 9.75V4.75C4.6543 2.54 6.4783 0.75 8.7303 0.75C10.1273 0.75 11.3603 1.44 12.0953 2.491" stroke="#0E0E0E" stroke-width="1.5" stroke-linecap="round" stroke-linejoin="round"/>
<path d="M7.34961 16.9302C7.72548 17.4919 8.2344 17.9521 8.83109 18.2696C9.42777 18.5871 10.0937 18.7522 10.7696 18.7502C13.0196 18.7502 14.8456 16.9602 14.8456 14.7502V9.75017L9.90961 6.84717" stroke="#0E0E0E" stroke-width="1.5" stroke-linecap="round" stroke-linejoin="round"/>
<path d="M7.20117 11.2498V5.41981L11.6132 2.91981C13.5632 1.81481 16.0562 2.46981 17.1822 4.38281C17.527 4.966 17.7152 5.62844 17.7285 6.30582C17.7418 6.9832 17.5798 7.65252 17.2582 8.24881" stroke="#0E0E0E" stroke-width="1.5" stroke-linecap="round" stroke-linejoin="round"/>
<path d="M2.23917 11.2499C1.91738 11.8461 1.75518 12.5154 1.76832 13.1927C1.78146 13.8701 1.96949 14.5326 2.31417 15.1159C3.44017 17.0289 5.93417 17.6839 7.88417 16.5799L12.2962 14.0799L12.3922 8.48389" stroke="#0E0E0E" stroke-width="1.5" stroke-linecap="round" stroke-linejoin="round"/>
<path d="M14.8453 15.3799C15.5269 15.3535 16.1911 15.1571 16.7774 14.8085C17.3637 14.4599 17.8536 13.9702 18.2023 13.3839C19.3283 11.4709 18.6603 9.02392 16.7103 7.91992L12.2973 5.41992L7.23828 8.17492" stroke="#0E0E0E" stroke-width="1.5" stroke-linecap="round" stroke-linejoin="round"/>
<path d="M4.65504 4.12012C3.97325 4.14632 3.30885 4.34268 2.72234 4.6913C2.13583 5.03992 1.64586 5.52973 1.29704 6.11612C0.171042 8.03012 0.839042 10.4761 2.78904 11.5801L7.20204 14.0801L12.25 11.3301" stroke="#0E0E0E" stroke-width="1.5" stroke-linecap="round" stroke-linejoin="round"/>
</svg>
