<svg width="48" height="48" viewBox="0 0 48 48" fill="none" xmlns="http://www.w3.org/2000/svg">
<circle cx="24" cy="24" r="24" fill="#8BEDB4"/>
<path d="M24 12C17.3726 12 12 17.3726 12 24C12 30.6278 17.3726 36 24 36C30.6278 36 36 30.6278 36 24C36 17.3726 30.6278 12 24 12ZM24 34.5236C18.2104 34.5236 13.5 29.7896 13.5 24C13.5 18.2103 18.2104 13.5 24 13.5C29.7896 13.5 34.5 18.2104 34.5 24C34.5 29.7896 29.7896 34.5236 24 34.5236ZM28.7891 19.6091L21.7485 26.694L18.5779 23.5234C18.285 23.2305 17.8102 23.2305 17.517 23.5234C17.2241 23.8162 17.2241 24.291 17.517 24.5839L21.2291 28.2964C21.522 28.5889 21.9967 28.5889 22.29 28.2964C22.3237 28.2626 22.3526 28.2259 22.3789 28.1876L29.8504 20.67C30.1429 20.3771 30.1429 19.9024 29.8504 19.6091C29.5571 19.3163 29.0824 19.3163 28.7891 19.6091Z" fill="#107134"/>
</svg>
