<svg width="34" height="16" viewBox="0 0 34 16" fill="none" xmlns="http://www.w3.org/2000/svg">
<path d="M5.15722 2.93095L9.76822 7.61595C9.86935 7.71817 9.92607 7.85616 9.92607 7.99995C9.92607 8.14374 9.86935 8.28173 9.76822 8.38395L5.15822 13.0699C5.05715 13.1728 5.00051 13.3112 5.00051 13.4554C5.00051 13.5997 5.05715 13.7381 5.15822 13.8409C5.2076 13.8916 5.26662 13.9318 5.33179 13.9593C5.39697 13.9868 5.46699 14.001 5.53772 14.001C5.60846 14.001 5.67848 13.9868 5.74365 13.9593C5.80883 13.9318 5.86785 13.8916 5.91722 13.8409L10.5272 9.15695C10.8302 8.84843 10.9999 8.43333 10.9999 8.00095C10.9999 7.56857 10.8302 7.15347 10.5272 6.84495L5.91722 2.16095C5.86783 2.11015 5.80875 2.06977 5.74348 2.04219C5.67822 2.01462 5.60808 2.00041 5.53722 2.00041C5.46637 2.00041 5.39623 2.01462 5.33096 2.04219C5.26569 2.06977 5.20662 2.11015 5.15722 2.16095C5.05615 2.26381 4.99951 2.40224 4.99951 2.54645C4.99951 2.69066 5.05615 2.82909 5.15722 2.93195" fill="#F8FAE5"/>
<path d="M14.1572 2.93095L18.7682 7.61595C18.8694 7.71817 18.9261 7.85616 18.9261 7.99995C18.9261 8.14374 18.8694 8.28173 18.7682 8.38395L14.1582 13.0699C14.0571 13.1728 14.0005 13.3112 14.0005 13.4554C14.0005 13.5997 14.0571 13.7381 14.1582 13.8409C14.2076 13.8916 14.2666 13.9318 14.3318 13.9593C14.397 13.9868 14.467 14.001 14.5377 14.001C14.6085 14.001 14.6785 13.9868 14.7437 13.9593C14.8088 13.9318 14.8678 13.8916 14.9172 13.8409L19.5272 9.15695C19.8302 8.84843 19.9999 8.43333 19.9999 8.00095C19.9999 7.56857 19.8302 7.15347 19.5272 6.84495L14.9172 2.16095C14.8678 2.11015 14.8088 2.06977 14.7435 2.04219C14.6782 2.01462 14.6081 2.00041 14.5372 2.00041C14.4664 2.00041 14.3962 2.01462 14.331 2.04219C14.2657 2.06977 14.2066 2.11015 14.1572 2.16095C14.0561 2.26381 13.9995 2.40224 13.9995 2.54645C13.9995 2.69066 14.0561 2.82909 14.1572 2.93195" fill="#F8FAE5"/>
<path d="M23.1572 2.93095L27.7682 7.61595C27.8694 7.71817 27.9261 7.85616 27.9261 7.99995C27.9261 8.14374 27.8694 8.28173 27.7682 8.38395L23.1582 13.0699C23.0571 13.1728 23.0005 13.3112 23.0005 13.4554C23.0005 13.5997 23.0571 13.7381 23.1582 13.8409C23.2076 13.8916 23.2666 13.9318 23.3318 13.9593C23.397 13.9868 23.467 14.001 23.5377 14.001C23.6085 14.001 23.6785 13.9868 23.7437 13.9593C23.8088 13.9318 23.8678 13.8916 23.9172 13.8409L28.5272 9.15695C28.8302 8.84843 28.9999 8.43333 28.9999 8.00095C28.9999 7.56857 28.8302 7.15347 28.5272 6.84495L23.9172 2.16095C23.8678 2.11015 23.8088 2.06977 23.7435 2.04219C23.6782 2.01462 23.6081 2.00041 23.5372 2.00041C23.4664 2.00041 23.3962 2.01462 23.331 2.04219C23.2657 2.06977 23.2066 2.11015 23.1572 2.16095C23.0561 2.26381 22.9995 2.40224 22.9995 2.54645C22.9995 2.69066 23.0561 2.82909 23.1572 2.93195" fill="#F8FAE5"/>
</svg>
