<svg width="24" height="24" viewBox="0 0 24 24" fill="none" xmlns="http://www.w3.org/2000/svg">
<mask id="path-1-inside-1_565_1228" fill="white">
<path d="M16 18C16.5304 18 17.0391 18.2107 17.4142 18.5858C17.7893 18.9609 18 19.4696 18 20C18 20.5304 17.7893 21.0391 17.4142 21.4142C17.0391 21.7893 16.5304 22 16 22C15.4696 22 14.9609 21.7893 14.5858 21.4142C14.2107 21.0391 14 20.5304 14 20C14 19.4696 14.2107 18.9609 14.5858 18.5858C14.9609 18.2107 15.4696 18 16 18ZM16 19C15.7348 19 15.4804 19.1054 15.2929 19.2929C15.1054 19.4804 15 19.7348 15 20C15 20.2652 15.1054 20.5196 15.2929 20.7071C15.4804 20.8946 15.7348 21 16 21C16.2652 21 16.5196 20.8946 16.7071 20.7071C16.8946 20.5196 17 20.2652 17 20C17 19.7348 16.8946 19.4804 16.7071 19.2929C16.5196 19.1054 16.2652 19 16 19ZM7 18C7.53043 18 8.03914 18.2107 8.41421 18.5858C8.78929 18.9609 9 19.4696 9 20C9 20.5304 8.78929 21.0391 8.41421 21.4142C8.03914 21.7893 7.53043 22 7 22C6.46957 22 5.96086 21.7893 5.58579 21.4142C5.21071 21.0391 5 20.5304 5 20C5 19.4696 5.21071 18.9609 5.58579 18.5858C5.96086 18.2107 6.46957 18 7 18ZM7 19C6.73478 19 6.48043 19.1054 6.29289 19.2929C6.10536 19.4804 6 19.7348 6 20C6 20.2652 6.10536 20.5196 6.29289 20.7071C6.48043 20.8946 6.73478 21 7 21C7.26522 21 7.51957 20.8946 7.70711 20.7071C7.89464 20.5196 8 20.2652 8 20C8 19.7348 7.89464 19.4804 7.70711 19.2929C7.51957 19.1054 7.26522 19 7 19ZM18 6H4.27L6.82 12H15C15.33 12 15.62 11.84 15.8 11.6L18.8 7.6C18.93 7.43 19 7.22 19 7C19 6.73478 18.8946 6.48043 18.7071 6.29289C18.5196 6.10536 18.2652 6 18 6ZM15 13H6.87L6.1 14.56L6 15C6 15.2652 6.10536 15.5196 6.29289 15.7071C6.48043 15.8946 6.73478 16 7 16H18V17H7C6.46957 17 5.96086 16.7893 5.58579 16.4142C5.21071 16.0391 5 15.5304 5 15C4.9997 14.6607 5.08573 14.3269 5.25 14.03L5.97 12.56L2.34 4H1V3H3L3.85 5H18C18.5304 5 19.0391 5.21071 19.4142 5.58579C19.7893 5.96086 20 6.46957 20 7C20 7.5 19.83 7.92 19.55 8.26L16.64 12.15C16.28 12.66 15.68 13 15 13Z"/>
</mask>
<path d="M16 18C16.5304 18 17.0391 18.2107 17.4142 18.5858C17.7893 18.9609 18 19.4696 18 20C18 20.5304 17.7893 21.0391 17.4142 21.4142C17.0391 21.7893 16.5304 22 16 22C15.4696 22 14.9609 21.7893 14.5858 21.4142C14.2107 21.0391 14 20.5304 14 20C14 19.4696 14.2107 18.9609 14.5858 18.5858C14.9609 18.2107 15.4696 18 16 18ZM16 19C15.7348 19 15.4804 19.1054 15.2929 19.2929C15.1054 19.4804 15 19.7348 15 20C15 20.2652 15.1054 20.5196 15.2929 20.7071C15.4804 20.8946 15.7348 21 16 21C16.2652 21 16.5196 20.8946 16.7071 20.7071C16.8946 20.5196 17 20.2652 17 20C17 19.7348 16.8946 19.4804 16.7071 19.2929C16.5196 19.1054 16.2652 19 16 19ZM7 18C7.53043 18 8.03914 18.2107 8.41421 18.5858C8.78929 18.9609 9 19.4696 9 20C9 20.5304 8.78929 21.0391 8.41421 21.4142C8.03914 21.7893 7.53043 22 7 22C6.46957 22 5.96086 21.7893 5.58579 21.4142C5.21071 21.0391 5 20.5304 5 20C5 19.4696 5.21071 18.9609 5.58579 18.5858C5.96086 18.2107 6.46957 18 7 18ZM7 19C6.73478 19 6.48043 19.1054 6.29289 19.2929C6.10536 19.4804 6 19.7348 6 20C6 20.2652 6.10536 20.5196 6.29289 20.7071C6.48043 20.8946 6.73478 21 7 21C7.26522 21 7.51957 20.8946 7.70711 20.7071C7.89464 20.5196 8 20.2652 8 20C8 19.7348 7.89464 19.4804 7.70711 19.2929C7.51957 19.1054 7.26522 19 7 19ZM18 6H4.27L6.82 12H15C15.33 12 15.62 11.84 15.8 11.6L18.8 7.6C18.93 7.43 19 7.22 19 7C19 6.73478 18.8946 6.48043 18.7071 6.29289C18.5196 6.10536 18.2652 6 18 6ZM15 13H6.87L6.1 14.56L6 15C6 15.2652 6.10536 15.5196 6.29289 15.7071C6.48043 15.8946 6.73478 16 7 16H18V17H7C6.46957 17 5.96086 16.7893 5.58579 16.4142C5.21071 16.0391 5 15.5304 5 15C4.9997 14.6607 5.08573 14.3269 5.25 14.03L5.97 12.56L2.34 4H1V3H3L3.85 5H18C18.5304 5 19.0391 5.21071 19.4142 5.58579C19.7893 5.96086 20 6.46957 20 7C20 7.5 19.83 7.92 19.55 8.26L16.64 12.15C16.28 12.66 15.68 13 15 13Z" fill="#B3B3B3"/>
<path d="M5 20H3.5H5ZM4.27 6V4.5H2.00265L2.8895 6.58671L4.27 6ZM6.82 12L5.4395 12.5867L5.82765 13.5H6.82V12ZM15.8 11.6L17 12.5L15.8 11.6ZM18.8 7.6L17.6084 6.68879L17.6 6.7L18.8 7.6ZM6.87 13V11.5H5.93761L5.52493 12.3361L6.87 13ZM6.1 14.56L4.75493 13.8961L4.67655 14.0549L4.6373 14.2276L6.1 14.56ZM6 15L4.5373 14.6676L4.5 14.8317V15H6ZM18 16H19.5V14.5H18V16ZM18 17V18.5H19.5V17H18ZM5 15H6.5L6.5 14.9987L5 15ZM5.25 14.03L6.5625 14.7562L6.58063 14.7234L6.59709 14.6898L5.25 14.03ZM5.97 12.56L7.31709 13.2198L7.61831 12.6048L7.35096 11.9744L5.97 12.56ZM2.34 4L3.72096 3.41438L3.3332 2.5H2.34V4ZM1 4H-0.5V5.5H1V4ZM1 3V1.5H-0.5V3H1ZM3 3L4.3805 2.41329L3.99235 1.5H3V3ZM3.85 5L2.4695 5.58671L2.85765 6.5H3.85V5ZM18 5V3.5V5ZM19.55 8.26L18.3921 7.30644L18.3699 7.33346L18.3489 7.36148L19.55 8.26ZM16.64 12.15L15.4389 11.2515L15.4265 11.2681L15.4145 11.285L16.64 12.15ZM16 18V19.5C16.1326 19.5 16.2598 19.5527 16.3536 19.6464L17.4142 18.5858L18.4749 17.5251C17.8185 16.8687 16.9283 16.5 16 16.5V18ZM17.4142 18.5858L16.3536 19.6464C16.4473 19.7402 16.5 19.8674 16.5 20H18H19.5C19.5 19.0717 19.1313 18.1815 18.4749 17.5251L17.4142 18.5858ZM18 20H16.5C16.5 20.1326 16.4473 20.2598 16.3536 20.3536L17.4142 21.4142L18.4749 22.4749C19.1313 21.8185 19.5 20.9283 19.5 20H18ZM17.4142 21.4142L16.3536 20.3536C16.2598 20.4473 16.1326 20.5 16 20.5V22V23.5C16.9283 23.5 17.8185 23.1313 18.4749 22.4749L17.4142 21.4142ZM16 22V20.5C15.8674 20.5 15.7402 20.4473 15.6464 20.3536L14.5858 21.4142L13.5251 22.4749C14.1815 23.1313 15.0717 23.5 16 23.5V22ZM14.5858 21.4142L15.6464 20.3536C15.5527 20.2598 15.5 20.1326 15.5 20H14H12.5C12.5 20.9283 12.8687 21.8185 13.5251 22.4749L14.5858 21.4142ZM14 20H15.5C15.5 19.8674 15.5527 19.7402 15.6464 19.6464L14.5858 18.5858L13.5251 17.5251C12.8687 18.1815 12.5 19.0717 12.5 20H14ZM14.5858 18.5858L15.6464 19.6464C15.7402 19.5527 15.8674 19.5 16 19.5V18V16.5C15.0717 16.5 14.1815 16.8687 13.5251 17.5251L14.5858 18.5858ZM16 19V17.5C15.337 17.5 14.7011 17.7634 14.2322 18.2322L15.2929 19.2929L16.3536 20.3536C16.2598 20.4473 16.1326 20.5 16 20.5V19ZM15.2929 19.2929L14.2322 18.2322C13.7634 18.7011 13.5 19.337 13.5 20H15H16.5C16.5 20.1326 16.4473 20.2598 16.3536 20.3536L15.2929 19.2929ZM15 20H13.5C13.5 20.663 13.7634 21.2989 14.2322 21.7678L15.2929 20.7071L16.3536 19.6464C16.4473 19.7402 16.5 19.8674 16.5 20H15ZM15.2929 20.7071L14.2322 21.7678C14.7011 22.2366 15.337 22.5 16 22.5V21V19.5C16.1326 19.5 16.2598 19.5527 16.3536 19.6464L15.2929 20.7071ZM16 21V22.5C16.663 22.5 17.2989 22.2366 17.7678 21.7678L16.7071 20.7071L15.6464 19.6464C15.7402 19.5527 15.8674 19.5 16 19.5V21ZM16.7071 20.7071L17.7678 21.7678C18.2366 21.2989 18.5 20.663 18.5 20H17H15.5C15.5 19.8674 15.5527 19.7402 15.6464 19.6464L16.7071 20.7071ZM17 20H18.5C18.5 19.337 18.2366 18.7011 17.7678 18.2322L16.7071 19.2929L15.6464 20.3536C15.5527 20.2598 15.5 20.1326 15.5 20H17ZM16.7071 19.2929L17.7678 18.2322C17.2989 17.7634 16.663 17.5 16 17.5V19V20.5C15.8674 20.5 15.7402 20.4473 15.6464 20.3536L16.7071 19.2929ZM7 18V19.5C7.13261 19.5 7.25978 19.5527 7.35355 19.6464L8.41421 18.5858L9.47487 17.5251C8.8185 16.8687 7.92826 16.5 7 16.5V18ZM8.41421 18.5858L7.35355 19.6464C7.44732 19.7402 7.5 19.8674 7.5 20H9H10.5C10.5 19.0717 10.1313 18.1815 9.47487 17.5251L8.41421 18.5858ZM9 20H7.5C7.5 20.1326 7.44732 20.2598 7.35355 20.3536L8.41421 21.4142L9.47487 22.4749C10.1313 21.8185 10.5 20.9283 10.5 20H9ZM8.41421 21.4142L7.35355 20.3536C7.25978 20.4473 7.13261 20.5 7 20.5V22V23.5C7.92826 23.5 8.8185 23.1313 9.47487 22.4749L8.41421 21.4142ZM7 22V20.5C6.86739 20.5 6.74022 20.4473 6.64645 20.3536L5.58579 21.4142L4.52513 22.4749C5.1815 23.1313 6.07174 23.5 7 23.5V22ZM5.58579 21.4142L6.64645 20.3536C6.55268 20.2598 6.5 20.1326 6.5 20H5H3.5C3.5 20.9283 3.86875 21.8185 4.52513 22.4749L5.58579 21.4142ZM5 20H6.5C6.5 19.8674 6.55268 19.7402 6.64645 19.6464L5.58579 18.5858L4.52513 17.5251C3.86875 18.1815 3.5 19.0717 3.5 20H5ZM5.58579 18.5858L6.64645 19.6464C6.74022 19.5527 6.86739 19.5 7 19.5V18V16.5C6.07174 16.5 5.1815 16.8687 4.52513 17.5251L5.58579 18.5858ZM7 19V17.5C6.33696 17.5 5.70108 17.7634 5.23223 18.2322L6.29289 19.2929L7.35355 20.3536C7.25978 20.4473 7.13261 20.5 7 20.5V19ZM6.29289 19.2929L5.23223 18.2322C4.76339 18.7011 4.5 19.337 4.5 20H6H7.5C7.5 20.1326 7.44732 20.2598 7.35355 20.3536L6.29289 19.2929ZM6 20H4.5C4.5 20.663 4.76339 21.2989 5.23223 21.7678L6.29289 20.7071L7.35355 19.6464C7.44732 19.7402 7.5 19.8674 7.5 20H6ZM6.29289 20.7071L5.23223 21.7678C5.70108 22.2366 6.33696 22.5 7 22.5V21V19.5C7.13261 19.5 7.25978 19.5527 7.35355 19.6464L6.29289 20.7071ZM7 21V22.5C7.66304 22.5 8.29892 22.2366 8.76777 21.7678L7.70711 20.7071L6.64645 19.6464C6.74022 19.5527 6.86739 19.5 7 19.5V21ZM7.70711 20.7071L8.76777 21.7678C9.23661 21.2989 9.5 20.663 9.5 20H8H6.5C6.5 19.8674 6.55268 19.7402 6.64645 19.6464L7.70711 20.7071ZM8 20H9.5C9.5 19.337 9.23661 18.7011 8.76777 18.2322L7.70711 19.2929L6.64645 20.3536C6.55268 20.2598 6.5 20.1326 6.5 20H8ZM7.70711 19.2929L8.76777 18.2322C8.29892 17.7634 7.66304 17.5 7 17.5V19V20.5C6.86739 20.5 6.74022 20.4473 6.64645 20.3536L7.70711 19.2929ZM18 6V4.5H4.27V6V7.5H18V6ZM4.27 6L2.8895 6.58671L5.4395 12.5867L6.82 12L8.2005 11.4133L5.6505 5.41329L4.27 6ZM6.82 12V13.5H15V12V10.5H6.82V12ZM15 12V13.5C15.8263 13.5 16.5516 13.0979 17 12.5L15.8 11.6L14.6 10.7C14.6884 10.5821 14.8337 10.5 15 10.5V12ZM15.8 11.6L17 12.5L20 8.5L18.8 7.6L17.6 6.7L14.6 10.7L15.8 11.6ZM18.8 7.6L19.9915 8.51118C20.3276 8.07177 20.5 7.53942 20.5 7H19H17.5C17.5 6.90058 17.5324 6.78823 17.6085 6.68882L18.8 7.6ZM19 7H20.5C20.5 6.33696 20.2366 5.70108 19.7678 5.23223L18.7071 6.29289L17.6464 7.35355C17.5527 7.25978 17.5 7.13261 17.5 7H19ZM18.7071 6.29289L19.7678 5.23223C19.2989 4.76339 18.663 4.5 18 4.5V6V7.5C17.8674 7.5 17.7402 7.44732 17.6464 7.35355L18.7071 6.29289ZM15 13V11.5H6.87V13V14.5H15V13ZM6.87 13L5.52493 12.3361L4.75493 13.8961L6.1 14.56L7.44507 15.2239L8.21507 13.6639L6.87 13ZM6.1 14.56L4.6373 14.2276L4.5373 14.6676L6 15L7.4627 15.3324L7.5627 14.8924L6.1 14.56ZM6 15H4.5C4.5 15.663 4.76339 16.2989 5.23223 16.7678L6.29289 15.7071L7.35355 14.6464C7.44732 14.7402 7.5 14.8674 7.5 15H6ZM6.29289 15.7071L5.23223 16.7678C5.70107 17.2366 6.33696 17.5 7 17.5V16V14.5C7.13261 14.5 7.25979 14.5527 7.35355 14.6464L6.29289 15.7071ZM7 16V17.5H18V16V14.5H7V16ZM18 16H16.5V17H18H19.5V16H18ZM18 17V15.5H7V17V18.5H18V17ZM7 17V15.5C6.86739 15.5 6.74022 15.4473 6.64645 15.3536L5.58579 16.4142L4.52513 17.4749C5.1815 18.1313 6.07174 18.5 7 18.5V17ZM5.58579 16.4142L6.64645 15.3536C6.55268 15.2598 6.5 15.1326 6.5 15H5H3.5C3.5 15.9283 3.86875 16.8185 4.52513 17.4749L5.58579 16.4142ZM5 15L6.5 14.9987C6.49993 14.9139 6.52143 14.8304 6.5625 14.7562L5.25 14.03L3.9375 13.3038C3.65004 13.8234 3.49948 14.4075 3.5 15.0013L5 15ZM5.25 14.03L6.59709 14.6898L7.31709 13.2198L5.97 12.56L4.62291 11.9002L3.90291 13.3702L5.25 14.03ZM5.97 12.56L7.35096 11.9744L3.72096 3.41438L2.34 4L0.959039 4.58562L4.58904 13.1456L5.97 12.56ZM2.34 4V2.5H1V4V5.5H2.34V4ZM1 4H2.5V3H1H-0.5V4H1ZM1 3V4.5H3V3V1.5H1V3ZM3 3L1.6195 3.58671L2.4695 5.58671L3.85 5L5.2305 4.41329L4.3805 2.41329L3 3ZM3.85 5V6.5H18V5V3.5H3.85V5ZM18 5V6.5C18.1326 6.5 18.2598 6.55268 18.3536 6.64645L19.4142 5.58579L20.4749 4.52513C19.8185 3.86875 18.9283 3.5 18 3.5V5ZM19.4142 5.58579L18.3536 6.64645C18.4473 6.74022 18.5 6.86739 18.5 7H20H21.5C21.5 6.07174 21.1313 5.1815 20.4749 4.52513L19.4142 5.58579ZM20 7H18.5C18.5 7.07674 18.4876 7.13062 18.4728 7.17066C18.4576 7.21172 18.4332 7.25659 18.3921 7.30644L19.55 8.26L20.7079 9.21356C21.1966 8.62008 21.5 7.86696 21.5 7H20ZM19.55 8.26L18.3489 7.36148L15.4389 11.2515L16.64 12.15L17.8411 13.0485L20.7511 9.15852L19.55 8.26ZM16.64 12.15L15.4145 11.285C15.3221 11.4159 15.1697 11.5 15 11.5V13V14.5C16.1903 14.5 17.2379 13.9041 17.8655 13.015L16.64 12.15Z" fill="#B3B3B3" mask="url(#path-1-inside-1_565_1228)"/>
</svg>
