<svg width="19" height="23" viewBox="0 0 19 23" fill="none" xmlns="http://www.w3.org/2000/svg">
<path d="M13.2774 7.358C12.8044 7.321 12.2974 7.434 11.5194 7.731C11.5844 7.706 10.7774 8.021 10.5504 8.101C10.0484 8.276 9.63538 8.372 9.17238 8.372C8.71438 8.372 8.29238 8.28 7.80738 8.117C7.63755 8.05913 7.46917 7.99711 7.30238 7.931L6.85338 7.754C6.20538 7.5 5.84138 7.404 5.53838 7.412C4.38538 7.426 3.29538 8.092 2.66138 9.194C1.36938 11.437 2.08538 15.493 3.97438 18.225C4.97938 19.669 5.53038 20.185 5.75138 20.178C5.97338 20.168 6.13738 20.121 6.53538 19.953L6.70138 19.882C7.70738 19.453 8.41138 19.264 9.47238 19.264C10.4934 19.264 11.1754 19.45 12.1414 19.866L12.3094 19.938C12.7064 20.108 12.8494 20.146 13.1014 20.14C13.4584 20.135 13.8994 19.723 14.8784 18.286C15.1464 17.895 15.3834 17.483 15.5884 17.066C15.4538 16.9552 15.3233 16.8395 15.1974 16.719C13.9074 15.491 13.1104 13.835 13.0884 11.789C13.0675 10.2751 13.5655 8.79968 14.4994 7.608C14.1075 7.46293 13.6957 7.37862 13.2784 7.358M13.4334 5.364C14.1414 5.412 16.1694 5.628 17.4894 7.56C17.3814 7.62 15.0654 8.964 15.0894 11.772C15.1254 15.132 18.0294 16.248 18.0654 16.26C18.0414 16.344 17.5974 17.856 16.5294 19.416C15.6054 20.772 14.6454 22.116 13.1334 22.14C11.6454 22.176 11.1654 21.264 9.47338 21.264C7.76938 21.264 7.24138 22.116 5.83738 22.176C4.37338 22.224 3.26938 20.712 2.33338 19.368C0.425378 16.608 -1.02662 11.592 0.929378 8.196C1.90138 6.504 3.62938 5.436 5.51338 5.412C6.94138 5.376 8.29738 6.372 9.17338 6.372C10.0374 6.372 11.5854 5.22 13.4334 5.364ZM12.2934 3.54C11.5134 4.476 10.2414 5.208 9.00538 5.112C8.83738 3.84 9.46138 2.508 10.1814 1.68C10.9854 0.744 12.3294 0.048 13.4454 0C13.5894 1.296 13.0734 2.604 12.2934 3.54Z" fill="#0E0E0E"/>
</svg>
